<?xml version="1.0" encoding="UTF-8" standalone="no" ?>
<!DOCTYPE svg PUBLIC "-//W3C//DTD SVG 1.1//EN" "http://www.w3.org/Graphics/SVG/1.1/DTD/svg11.dtd">
<svg xmlns="http://www.w3.org/2000/svg" xmlns:xlink="http://www.w3.org/1999/xlink" version="1.1" width="320.66999961853026" height="215.19199999999998" xml:space="preserve">
<desc>Created with Fabric.js 1.6.0-rc.1</desc>
<defs></defs>
<g style="stroke: none; stroke-width: 1; stroke-dasharray: none; stroke-linecap: butt; stroke-linejoin: miter; stroke-miterlimit: 10; fill: none; fill-rule: nonzero; opacity: 1;" transform="translate(66.48000000000002 10) scale(0.27 0.27)" >
  <path d="M 256 0 c -52.636 0 -112.814 81.754 -112.814 182.237 c 0 129.831 105.673 318.898 109.433 326.89 c 0.861 1.831 2.09 2.872 3.38 2.872 c 2.462 0 4.81 -1.042 6.453 -2.872 c 7.178 -7.992 175.784 -197.059 175.784 -326.89 C 438.237 81.754 356.488 0 256 0 z M 256 277.695 c -52.72 0 -95.458 -42.737 -95.458 -95.458 S 203.28 86.78 256 86.78 s 95.458 42.737 95.458 95.458 S 308.72 277.695 256 277.695 z" style="stroke: none; stroke-width: 1; stroke-dasharray: none; stroke-linecap: butt; stroke-linejoin: miter; stroke-miterlimit: 10; fill: #FF6469; fill-rule: nonzero; opacity: 1;" transform=" matrix(1 0 0 1 0 0) " stroke-linecap="round" />
  <path d="M 252.62 509.128 c -3.761 -7.992 -109.433 -197.059 -109.433 -326.89 C 143.186 81.754 203.364 0 256 0 C 155.512 0 73.763 81.754 73.763 182.237 c 0 129.831 168.606 318.898 175.784 326.89 c 1.644 1.831 3.992 2.872 6.453 2.872 C 254.71 512 253.481 510.958 252.62 509.128 z" style="stroke: none; stroke-width: 1; stroke-dasharray: none; stroke-linecap: butt; stroke-linejoin: miter; stroke-miterlimit: 10; fill: #D2555F; fill-rule: nonzero; opacity: 1;" transform=" matrix(1 0 0 1 0 0) " stroke-linecap="round" />
</g>
  <g transform="translate(55.1 127.7) rotate(34.85)">
   <text font-family="Cargo Bay" font-size="40" font-weight="normal" style="stroke: none; stroke-width: 1; stroke-dasharray: none; stroke-linecap: butt; stroke-linejoin: miter; stroke-miterlimit: 10; fill: #db043a; fill-rule: nonzero; opacity: 1;" ><tspan x="-73.06" y="8.98" style="stroke: none; stroke-width: 0; stroke-dasharray: none; stroke-linecap: butt; stroke-linejoin: miter; stroke-miterlimit: 4; fill: #db043a; fill-rule: ; opacity: 1;">S</tspan><tspan x="-48.63" y="8.98" style="stroke: none; stroke-width: 0; stroke-dasharray: none; stroke-linecap: butt; stroke-linejoin: miter; stroke-miterlimit: 4; fill: #db043a; fill-rule: ; opacity: 1;">c</tspan><tspan x="-24.28" y="8.98" style="stroke: none; stroke-width: 0; stroke-dasharray: none; stroke-linecap: butt; stroke-linejoin: miter; stroke-miterlimit: 4; fill: #db043a; fill-rule: ; opacity: 1;">r</tspan><tspan x="0.07" y="8.98" style="stroke: none; stroke-width: 0; stroke-dasharray: none; stroke-linecap: butt; stroke-linejoin: miter; stroke-miterlimit: 4; fill: #db043a; fill-rule: ; opacity: 1;">o</tspan><tspan x="24.36" y="8.98" style="stroke: none; stroke-width: 0; stroke-dasharray: none; stroke-linecap: butt; stroke-linejoin: miter; stroke-miterlimit: 4; fill: #db043a; fill-rule: ; opacity: 1;">l</tspan><tspan x="48.71" y="8.98" style="stroke: none; stroke-width: 0; stroke-dasharray: none; stroke-linecap: butt; stroke-linejoin: miter; stroke-miterlimit: 4; fill: #db043a; fill-rule: ; opacity: 1;">l</tspan></text>
 </g>
  <g transform="translate(220.81 113.36) rotate(316.71)">
   <text font-family="Cargo Bay" font-size="40" font-weight="normal" style="stroke: none; stroke-width: 1; stroke-dasharray: none; stroke-linecap: butt; stroke-linejoin: miter; stroke-miterlimit: 10; fill: #e0001e; fill-rule: nonzero; opacity: 1;" ><tspan x="-85.32" y="8.98" style="stroke: none; stroke-width: 0; stroke-dasharray: none; stroke-linecap: butt; stroke-linejoin: miter; stroke-miterlimit: 4; fill: #e0001e; fill-rule: ; opacity: 1;">p</tspan><tspan x="-61.04" y="8.98" style="stroke: none; stroke-width: 0; stroke-dasharray: none; stroke-linecap: butt; stroke-linejoin: miter; stroke-miterlimit: 4; fill: #e0001e; fill-rule: ; opacity: 1;">r</tspan><tspan x="-36.69" y="8.98" style="stroke: none; stroke-width: 0; stroke-dasharray: none; stroke-linecap: butt; stroke-linejoin: miter; stroke-miterlimit: 4; fill: #e0001e; fill-rule: ; opacity: 1;">o</tspan><tspan x="-12.41" y="8.98" style="stroke: none; stroke-width: 0; stroke-dasharray: none; stroke-linecap: butt; stroke-linejoin: miter; stroke-miterlimit: 4; fill: #e0001e; fill-rule: ; opacity: 1;">j</tspan><tspan x="11.87" y="8.98" style="stroke: none; stroke-width: 0; stroke-dasharray: none; stroke-linecap: butt; stroke-linejoin: miter; stroke-miterlimit: 4; fill: #e0001e; fill-rule: ; opacity: 1;">e</tspan><tspan x="36.46" y="8.98" style="stroke: none; stroke-width: 0; stroke-dasharray: none; stroke-linecap: butt; stroke-linejoin: miter; stroke-miterlimit: 4; fill: #e0001e; fill-rule: ; opacity: 1;">c</tspan><tspan x="60.81" y="8.98" style="stroke: none; stroke-width: 0; stroke-dasharray: none; stroke-linecap: butt; stroke-linejoin: miter; stroke-miterlimit: 4; fill: #e0001e; fill-rule: ; opacity: 1;">t</tspan></text>
 </g>
</svg>